<?xml version="1.0" encoding="UTF-8"?>
<!DOCTYPE svg PUBLIC "-//W3C//DTD SVG 1.1//EN" "http://www.w3.org/Graphics/SVG/1.1/DTD/svg11.dtd">
<svg version="1.2" width="342.25mm" height="342.24mm" viewBox="4354 5818 34225 34224" preserveAspectRatio="xMidYMid" fill-rule="evenodd" stroke-width="28.222" stroke-linejoin="round" xmlns="http://www.w3.org/2000/svg" xmlns:ooo="http://xml.openoffice.org/svg/export" xmlns:xlink="http://www.w3.org/1999/xlink" xmlns:presentation="http://sun.com/xmlns/staroffice/presentation" xmlns:smil="http://www.w3.org/2001/SMIL20/" xmlns:anim="urn:oasis:names:tc:opendocument:xmlns:animation:1.0" xml:space="preserve">
 <defs class="ClipPathGroup">
  <clipPath id="presentation_clip_path" clipPathUnits="userSpaceOnUse">
   <rect x="4354" y="5818" width="34225" height="34224"/>
  </clipPath>
 </defs>
 <defs class="TextShapeIndex">
  <g ooo:slide="id1" ooo:id-list="id3 id4 id5 id6 id7 id8 id9 id10 id11 id12 id13 id14 id15 id16 id17 id18 id19 id20 id21 id22 id23 id24 id25 id26 id27 id28 id29 id30 id31 id32 id33 id34 id35 id36 id37 id38 id39 id40 id41 id42 id43 id44 id45 id46 id47 id48 id49 id50 id51 id52 id53"/>
 </defs>
 <defs class="EmbeddedBulletChars">
  <g id="bullet-char-template(57356)" transform="scale(0.00048828125,-0.00048828125)">
   <path d="M 580,1141 L 1163,571 580,0 -4,571 580,1141 Z"/>
  </g>
  <g id="bullet-char-template(57354)" transform="scale(0.00048828125,-0.00048828125)">
   <path d="M 8,1128 L 1137,1128 1137,0 8,0 8,1128 Z"/>
  </g>
  <g id="bullet-char-template(10146)" transform="scale(0.00048828125,-0.00048828125)">
   <path d="M 174,0 L 602,739 174,1481 1456,739 174,0 Z M 1358,739 L 309,1346 659,739 1358,739 Z"/>
  </g>
  <g id="bullet-char-template(10132)" transform="scale(0.00048828125,-0.00048828125)">
   <path d="M 2015,739 L 1276,0 717,0 1260,543 174,543 174,936 1260,936 717,1481 1274,1481 2015,739 Z"/>
  </g>
  <g id="bullet-char-template(10007)" transform="scale(0.00048828125,-0.00048828125)">
   <path d="M 0,-2 C -7,14 -16,27 -25,37 L 356,567 C 262,823 215,952 215,954 215,979 228,992 255,992 264,992 276,990 289,987 310,991 331,999 354,1012 L 381,999 492,748 772,1049 836,1024 860,1049 C 881,1039 901,1025 922,1006 886,937 835,863 770,784 769,783 710,716 594,584 L 774,223 C 774,196 753,168 711,139 L 727,119 C 717,90 699,76 672,76 641,76 570,178 457,381 L 164,-76 C 142,-110 111,-127 72,-127 30,-127 9,-110 8,-76 1,-67 -2,-52 -2,-32 -2,-23 -1,-13 0,-2 Z"/>
  </g>
  <g id="bullet-char-template(10004)" transform="scale(0.00048828125,-0.00048828125)">
   <path d="M 285,-33 C 182,-33 111,30 74,156 52,228 41,333 41,471 41,549 55,616 82,672 116,743 169,778 240,778 293,778 328,747 346,684 L 369,508 C 377,444 397,411 428,410 L 1163,1116 C 1174,1127 1196,1133 1229,1133 1271,1133 1292,1118 1292,1087 L 1292,965 C 1292,929 1282,901 1262,881 L 442,47 C 390,-6 338,-33 285,-33 Z"/>
  </g>
  <g id="bullet-char-template(9679)" transform="scale(0.00048828125,-0.00048828125)">
   <path d="M 813,0 C 632,0 489,54 383,161 276,268 223,411 223,592 223,773 276,916 383,1023 489,1130 632,1184 813,1184 992,1184 1136,1130 1245,1023 1353,916 1407,772 1407,592 1407,412 1353,268 1245,161 1136,54 992,0 813,0 Z"/>
  </g>
  <g id="bullet-char-template(8226)" transform="scale(0.00048828125,-0.00048828125)">
   <path d="M 346,457 C 273,457 209,483 155,535 101,586 74,649 74,723 74,796 101,859 155,911 209,963 273,989 346,989 419,989 480,963 531,910 582,859 608,796 608,723 608,648 583,586 532,535 482,483 420,457 346,457 Z"/>
  </g>
  <g id="bullet-char-template(8211)" transform="scale(0.00048828125,-0.00048828125)">
   <path d="M -4,459 L 1135,459 1135,606 -4,606 -4,459 Z"/>
  </g>
 </defs>
 <defs class="TextEmbeddedBitmaps"/>
 <g class="SlideGroup">
  <g>
   <g id="id1" class="Slide" clip-path="url(#presentation_clip_path)">
    <g class="Page">
     <g class="com.sun.star.drawing.ClosedBezierShape">
      <g id="id3">
       <rect class="BoundingBox" stroke="none" fill="none" x="4354" y="5818" width="34226" height="34225"/>
       <path fill="rgb(102,153,0)" stroke="none" d="M 38579,22931 C 38579,32381 30917,40042 21467,40042 12015,40042 4354,32381 4354,22931 4354,13479 12015,5818 21467,5818 30917,5818 38579,13479 38579,22931 Z"/>
      </g>
     </g>
     <g class="com.sun.star.drawing.ClosedBezierShape">
      <g id="id4">
       <rect class="BoundingBox" stroke="none" fill="none" x="14063" y="22152" width="2749" height="2757"/>
       <path fill="rgb(255,195,174)" stroke="none" d="M 15862,22234 C 16088,22590 16362,22915 16676,23197 16720,23237 16766,23278 16791,23331 16848,23456 16775,23599 16692,23707 16609,23814 16508,23924 16503,24060 16500,24143 16534,24229 16506,24307 16484,24369 16428,24412 16374,24451 16059,24679 15712,24918 15323,24907 14883,24894 14523,24570 14222,24250 14163,24187 14102,24121 14077,24038 14033,23895 14104,23744 14174,23611 14428,23124 14682,22638 14936,22152 L 15862,22234 Z"/>
      </g>
     </g>
     <g class="com.sun.star.drawing.ClosedBezierShape">
      <g id="id5">
       <rect class="BoundingBox" stroke="none" fill="none" x="29239" y="17466" width="2997" height="3268"/>
       <path fill="rgb(255,195,174)" stroke="none" d="M 29456,20086 C 29577,19914 29550,19678 29478,19480 29407,19282 29295,19098 29255,18891 29193,18564 29320,18233 29445,17923 29522,17732 29680,17500 29874,17569 29922,17586 29963,17620 30012,17635 30160,17678 30288,17522 30437,17479 30596,17433 30759,17521 30901,17605 31300,17842 31700,18080 32099,18317 32150,18348 32204,18382 32225,18437 32246,18492 32229,18553 32210,18609 32143,18805 32051,18992 31960,19178 31733,19641 31486,20126 31052,20407 30641,20674 30127,20712 29638,20733 L 29456,20086 Z"/>
      </g>
     </g>
     <g class="com.sun.star.drawing.ClosedBezierShape">
      <g id="id6">
       <rect class="BoundingBox" stroke="none" fill="none" x="25419" y="22723" width="2422" height="984"/>
       <path fill="rgb(255,195,174)" stroke="none" d="M 27840,23452 C 27028,23490 26221,23575 25420,23706 25719,23641 26014,23560 26304,23465 26078,23483 25851,23471 25629,23430 25829,23399 26021,23319 26184,23200 26022,23181 25860,23162 25697,23143 25838,22974 26077,22933 26294,22904 26740,22843 27186,22783 27631,22723 L 27840,23452 Z"/>
      </g>
     </g>
     <g class="com.sun.star.drawing.ClosedBezierShape">
      <g id="id7">
       <rect class="BoundingBox" stroke="none" fill="none" x="11974" y="20109" width="3661" height="724"/>
       <path fill="rgb(255,195,174)" stroke="none" d="M 15634,20117 C 14415,20124 13195,20121 11974,20109 12271,20119 12568,20128 12866,20138 13302,20152 13747,20168 14152,20328 13964,20357 13786,20447 13651,20582 14007,20629 14369,20620 14722,20556 14621,20603 14533,20676 14467,20765 14719,20816 14978,20837 15236,20830 15216,20805 15196,20780 15176,20755 L 15634,20117 Z"/>
      </g>
     </g>
     <g class="com.sun.star.drawing.ClosedBezierShape">
      <g id="id8">
       <rect class="BoundingBox" stroke="none" fill="none" x="14000" y="18268" width="2976" height="4422"/>
       <path fill="rgb(255,195,174)" stroke="none" d="M 16975,18268 C 16504,18305 16032,18343 15561,18381 15032,18423 14492,18467 14000,18667 14455,18695 14909,18724 15364,18752 15080,18855 14797,18958 14513,19062 14859,19104 15205,19147 15551,19189 15340,19275 15117,19335 14891,19366 15105,19396 15352,19448 15448,19642 15499,19745 15492,19866 15485,19982 15455,20469 15424,20956 15394,21444 14938,21469 14485,21543 14045,21666 14291,21695 14537,21724 14783,21754 14599,21774 14424,21866 14303,22007 L 15046,22188 C 14902,22300 14795,22459 14744,22634 14827,22729 14996,22690 15074,22590 15153,22490 15165,22356 15175,22229 15243,21348 15311,20467 15379,19585 15470,19585 15557,19648 15586,19734 L 16975,18268 Z"/>
      </g>
     </g>
     <g class="com.sun.star.drawing.ClosedBezierShape">
      <g id="id9">
       <rect class="BoundingBox" stroke="none" fill="none" x="23609" y="25217" width="5352" height="5303"/>
       <path fill="rgb(255,195,174)" stroke="none" d="M 28214,30518 L 26726,30076 C 26730,30064 26955,29301 27146,28443 27343,27557 27398,27048 27407,26770 26602,26785 25516,26998 24042,27426 L 23609,25935 C 25584,25361 26932,25146 27978,25237 28280,25263 28542,25419 28716,25675 28958,26030 29122,26631 28698,28612 28487,29595 28225,30481 28214,30518 Z"/>
      </g>
     </g>
     <g class="com.sun.star.drawing.ClosedBezierShape">
      <g id="id10">
       <rect class="BoundingBox" stroke="none" fill="none" x="13998" y="27649" width="6964" height="4122"/>
       <path fill="rgb(255,195,174)" stroke="none" d="M 15772,31770 C 15231,31770 14641,31743 13998,31688 L 14129,30140 C 16969,30382 18186,29989 18707,29617 19186,29274 19274,28837 19362,28158 19384,27990 19406,27816 19442,27649 L 20960,27969 C 20938,28076 20920,28213 20901,28358 20810,29059 20673,30120 19610,30879 18772,31479 17532,31770 15772,31770 Z"/>
      </g>
     </g>
     <g class="com.sun.star.drawing.ClosedBezierShape">
      <g id="id11">
       <rect class="BoundingBox" stroke="none" fill="none" x="18365" y="25066" width="9333" height="4535"/>
       <path fill="rgb(70,96,117)" stroke="none" d="M 24259,25480 C 25012,25240 25796,25102 26585,25071 26964,25056 27358,25069 27697,25238 27305,25338 26917,25493 26616,25762 26314,26031 26109,26430 26146,26833 26348,26878 26839,26730 27041,26775 26656,27011 26448,27963 25935,27798 25312,27598 24552,27693 23944,27726 23336,27760 22718,27929 22243,28309 21936,28554 21696,28880 21371,29100 21156,29245 20850,29614 20760,29599 20113,29488 18820,29225 18365,28751 18706,28130 19048,27508 19389,26887 19500,26684 19614,26479 19781,26320 19949,26161 20182,26053 20409,26092 L 24259,25480 Z"/>
      </g>
     </g>
     <g class="com.sun.star.drawing.ClosedBezierShape">
      <g id="id12">
       <rect class="BoundingBox" stroke="none" fill="none" x="26504" y="27462" width="3467" height="790"/>
       <path fill="rgb(0,0,0)" stroke="none" d="M 29970,27463 C 29812,27457 29655,27489 29501,27520 28506,27718 27507,27893 26505,28045 27024,28040 27543,28036 28062,28032 27944,28085 27825,28138 27707,28190 27764,28250 27856,28252 27938,28250 28403,28240 28867,28229 29332,28219 L 29970,27463 Z"/>
      </g>
     </g>
     <g class="com.sun.star.drawing.ClosedBezierShape">
      <g id="id13">
       <rect class="BoundingBox" stroke="none" fill="none" x="23723" y="30161" width="3283" height="1860"/>
       <path fill="rgb(0,0,0)" stroke="none" d="M 26729,31334 C 25737,31603 24735,31832 23724,32020 24182,31804 24660,31629 25149,31498 25685,31354 26263,31248 26678,30879 26523,30869 26367,30859 26211,30849 26339,30821 26462,30773 26573,30706 26341,30711 26108,30717 25875,30723 26112,30608 26355,30506 26603,30418 26336,30433 26069,30448 25803,30463 26194,30328 26597,30227 27005,30161 L 26729,31334 Z"/>
      </g>
     </g>
     <g class="com.sun.star.drawing.ClosedBezierShape">
      <g id="id14">
       <rect class="BoundingBox" stroke="none" fill="none" x="12356" y="30414" width="1858" height="1432"/>
       <path fill="rgb(0,0,0)" stroke="none" d="M 14163,31719 C 13568,31601 12957,31917 12357,31829 12802,31707 13248,31585 13693,31462 13512,31433 13331,31404 13151,31375 13280,31343 13408,31305 13534,31259 13453,31261 13372,31235 13308,31186 L 13702,30981 C 13712,30976 13723,30970 13733,30965 L 14056,30798 C 13748,30642 13374,30734 13042,30644 13002,30633 12954,30609 12955,30567 13374,30516 13793,30465 14213,30414 L 14163,31719 Z"/>
      </g>
     </g>
     <g class="com.sun.star.drawing.ClosedBezierShape">
      <g id="id15">
       <rect class="BoundingBox" stroke="none" fill="none" x="10525" y="32650" width="3710" height="2290"/>
       <path fill="rgb(0,0,0)" stroke="none" d="M 13353,34939 C 13305,34743 13113,34610 12915,34567 12718,34524 12514,34553 12314,34578 11721,34652 11123,34683 10526,34671 11123,34533 11711,34353 12284,34134 11996,34074 11703,34042 11410,34038 11760,33917 12110,33796 12461,33676 12268,33659 12075,33641 11882,33624 12602,33439 13323,33254 14043,33067 13980,32969 13917,32871 13854,32774 13970,32706 14101,32663 14234,32650 L 13353,34939 Z"/>
      </g>
     </g>
     <g class="com.sun.star.drawing.ClosedBezierShape">
      <g id="id16">
       <rect class="BoundingBox" stroke="none" fill="none" x="17914" y="29066" width="2929" height="771"/>
       <path fill="rgb(70,96,117)" stroke="none" d="M 20842,29500 C 19868,29628 18891,29740 17914,29836 18012,29719 18185,29708 18337,29696 18725,29664 19109,29562 19463,29400 19327,29354 19180,29342 19039,29367 19121,29332 19203,29298 19286,29263 19025,29279 18764,29283 18503,29275 18732,29175 18974,29104 19222,29066 L 20842,29500 Z"/>
      </g>
     </g>
     <g class="com.sun.star.drawing.ClosedBezierShape">
      <g id="id17">
       <rect class="BoundingBox" stroke="none" fill="none" x="15594" y="26896" width="4721" height="1818"/>
       <path fill="rgb(70,96,117)" stroke="none" d="M 19330,28712 C 18168,28196 16802,28414 15594,28014 16272,28030 16952,28047 17630,28063 17769,28066 17910,28069 18042,28030 17867,27977 17691,27925 17516,27872 17627,27889 17742,27878 17847,27840 17663,27791 17478,27742 17293,27694 17361,27676 17428,27658 17495,27640 17327,27578 17160,27517 16992,27455 17135,27435 17284,27453 17419,27506 17251,27448 17083,27390 16915,27333 17539,27382 18179,27430 18779,27251 18847,27231 18920,27204 18959,27145 18999,27085 18983,26986 18914,26967 19373,26853 19867,26876 20314,27032 L 19330,28712 Z"/>
      </g>
     </g>
     <g class="com.sun.star.drawing.ClosedBezierShape">
      <g id="id18">
       <rect class="BoundingBox" stroke="none" fill="none" x="17113" y="27077" width="3461" height="909"/>
       <path fill="rgb(80,110,140)" stroke="none" d="M 20573,27176 C 19765,27146 18956,27116 18148,27087 17864,27076 17576,27066 17296,27116 17475,27163 17654,27209 17833,27256 17593,27275 17353,27293 17113,27312 17563,27405 18020,27463 18479,27485 18377,27626 18203,27712 18030,27707 18119,27793 18257,27794 18380,27793 18937,27790 19495,27855 20036,27985 L 20573,27176 Z"/>
      </g>
     </g>
     <g class="com.sun.star.drawing.ClosedBezierShape">
      <g id="id19">
       <rect class="BoundingBox" stroke="none" fill="none" x="18582" y="25369" width="8312" height="3931"/>
       <path fill="rgb(80,110,140)" stroke="none" d="M 18583,28644 C 19198,28948 19857,29164 20532,29283 20602,29295 20675,29306 20744,29290 20839,29267 20913,29196 20981,29128 21340,28771 21686,28398 22091,28094 22496,27790 22969,27555 23474,27520 L 23300,27649 C 24178,27314 25172,27294 26062,27594 25906,27192 25904,26733 26055,26330 26207,25927 26511,25583 26893,25383 26225,25339 25551,25397 24900,25555 24903,25586 24906,25617 24910,25648 24282,25845 23655,26042 23027,26240 22399,26478 21764,26809 21677,26832 21353,26916 21021,26971 20685,26995 20522,27006 20359,27011 20196,27008 20055,27005 19880,26959 19742,26980 19518,27013 19302,27465 19182,27643 18964,27966 18764,28300 18583,28644 Z"/>
      </g>
     </g>
     <g class="com.sun.star.drawing.ClosedBezierShape">
      <g id="id20">
       <rect class="BoundingBox" stroke="none" fill="none" x="24915" y="19439" width="5855" height="4092"/>
       <path fill="rgb(255,195,174)" stroke="none" d="M 27663,22356 L 27663,22356 Z M 27755,23530 C 27453,23530 26974,23416 26040,22947 25446,22648 24937,22337 24915,22324 L 25539,21300 C 26399,21823 27370,22280 27706,22325 27818,22234 28149,21911 28865,20830 29336,20118 29729,19447 29733,19440 L 30769,20045 C 30750,20077 30307,20835 29779,21621 28685,23253 28269,23452 27965,23510 27905,23522 27836,23530 27755,23530 Z"/>
      </g>
     </g>
     <g class="com.sun.star.drawing.ClosedBezierShape">
      <g id="id21">
       <rect class="BoundingBox" stroke="none" fill="none" x="14776" y="18300" width="5542" height="4810"/>
       <path fill="rgb(255,195,174)" stroke="none" d="M 16540,19518 L 16540,19518 Z M 15975,23108 L 14776,23105 C 14776,23066 14780,22137 14894,21139 15074,19562 15413,18734 15994,18452 16314,18297 16939,18146 18662,18619 19535,18859 20285,19147 20317,19159 L 19885,20278 C 19878,20276 19151,19997 18336,19774 17036,19417 16612,19502 16532,19527 16482,19584 16226,19945 16073,21387 15979,22275 15975,23100 15975,23108 Z"/>
      </g>
     </g>
     <g class="com.sun.star.drawing.ClosedBezierShape">
      <g id="id22">
       <rect class="BoundingBox" stroke="none" fill="none" x="19063" y="18992" width="6943" height="7858"/>
       <path fill="rgb(214,34,5)" stroke="none" d="M 25987,21120 C 25959,21071 25901,21050 25848,21033 25377,20877 25070,20730 24614,20534 24133,20328 23630,20020 23147,19820 22574,19581 21346,19371 21191,19329 20750,19210 20067,18992 19865,18992 19664,18992 19234,20777 19377,20830 19520,20884 20425,20478 20439,20642 20446,20714 20563,22462 20361,23392 20148,24373 19133,26212 19133,26212 19110,26332 19086,26453 19063,26573 19596,26854 20229,26897 20824,26806 21420,26715 21988,26499 22551,26285 23269,26012 23987,25739 24706,25465 24569,25059 24577,24619 24592,24190 24612,23574 24640,22997 24685,22382 24692,22086 25224,23301 25399,23298 25574,23295 25936,21965 26002,21253 26006,21208 26009,21160 25987,21120 Z"/>
      </g>
     </g>
     <g class="com.sun.star.drawing.ClosedBezierShape">
      <g id="id23">
       <rect class="BoundingBox" stroke="none" fill="none" x="17294" y="20495" width="5437" height="6226"/>
       <path fill="rgb(214,34,5)" stroke="none" d="M 20881,20902 C 21037,21280 21162,21789 20838,22038 20716,22131 20558,22159 20406,22184 L 18425,22511 C 18824,22554 19222,22625 19611,22724 19167,22787 18721,22849 18277,22911 18671,22983 19067,23056 19462,23128 19058,23194 18653,23260 18249,23326 19069,23406 19888,23486 20707,23565 20772,23572 20841,23580 20892,23620 20953,23669 20974,23752 20977,23830 20990,24117 20816,24387 20587,24558 20357,24729 20076,24816 19798,24886 19333,25002 18856,25078 18378,25112 18612,25147 18838,25230 19039,25356 18457,25491 17875,25625 17294,25759 17845,25739 18397,25718 18949,25698 19106,25692 19272,25689 19406,25768 19541,25848 19618,26043 19520,26165 19476,26221 19405,26249 19336,26268 19042,26349 18728,26303 18424,26320 18120,26337 17784,26446 17649,26720 18135,26473 18690,26367 19233,26417 19565,26447 19897,26535 20227,26485 20699,26415 21086,26076 21389,25708 21890,25101 22241,24382 22510,23643 22739,23018 22886,22246 22445,21748 22247,21525 21964,21402 21721,21230 21478,21058 21257,20791 21295,20496 21394,20549 21493,20602 21592,20655 L 20881,20902 Z"/>
      </g>
     </g>
     <g class="com.sun.star.drawing.ClosedBezierShape">
      <g id="id24">
       <rect class="BoundingBox" stroke="none" fill="none" x="19231" y="22043" width="2811" height="1439"/>
       <path fill="rgb(244,58,19)" stroke="none" d="M 20035,22707 C 19791,22747 19552,22823 19330,22931 19576,22937 19823,22944 20069,22950 19955,22996 19850,23066 19763,23153 19938,23141 20112,23128 20286,23116 20281,23198 20175,23222 20095,23243 20016,23265 19934,23366 19999,23416 20019,23432 20048,23433 20074,23434 20553,23449 21032,23464 21512,23479 21562,23481 21616,23481 21655,23451 21692,23423 21707,23376 21720,23331 21843,22910 21950,22484 22040,22053 22046,22024 19853,22062 19651,22084 19841,22083 20589,22041 20389,22461 20250,22750 19479,22532 19232,22650 19459,22745 19786,22701 20035,22707 Z"/>
      </g>
     </g>
     <g class="com.sun.star.drawing.ClosedBezierShape">
      <g id="id25">
       <rect class="BoundingBox" stroke="none" fill="none" x="18751" y="20855" width="3282" height="3677"/>
       <path fill="rgb(244,58,19)" stroke="none" d="M 20835,20855 C 20823,21013 20608,21045 20450,21041 19904,21026 19355,21120 18846,21315 19341,21286 19841,21326 20325,21434 20032,21457 19739,21480 19445,21503 19841,21576 20236,21649 20631,21722 20716,21738 20808,21759 20857,21830 20892,21881 20895,21947 20896,22008 20901,22315 20883,22621 20843,22925 20812,23160 20756,23415 20570,23562 20486,23629 20383,23666 20282,23703 19919,23834 19557,23966 19194,24098 19483,24081 19775,24116 20051,24202 19613,24203 19175,24261 18751,24374 19138,24544 19576,24541 19998,24522 20390,24505 20787,24475 21156,24342 21526,24209 21868,23958 22032,23601 L 20835,20855 Z"/>
      </g>
     </g>
     <g class="com.sun.star.drawing.ClosedBezierShape">
      <g id="id26">
       <rect class="BoundingBox" stroke="none" fill="none" x="17153" y="18874" width="3904" height="1432"/>
       <path fill="rgb(214,34,5)" stroke="none" d="M 19898,18985 C 19380,18897 18843,18810 18333,18940 18776,19016 19219,19092 19661,19168 19619,19197 19576,19226 19533,19255 19913,19269 20339,19331 20705,19431 19525,19326 18334,19332 17153,19448 L 18178,19472 C 18374,19477 18592,19490 18728,19631 18650,19681 18564,19719 18475,19743 18599,19736 18726,19755 18843,19797 18774,19866 18705,19936 18635,20005 19442,20105 20249,20204 21056,20304 L 19898,18985 Z"/>
      </g>
     </g>
     <g class="com.sun.star.drawing.ClosedBezierShape">
      <g id="id27">
       <rect class="BoundingBox" stroke="none" fill="none" x="18781" y="19626" width="2483" height="666"/>
       <path fill="rgb(244,58,19)" stroke="none" d="M 20325,19629 C 19810,19624 19296,19626 18781,19634 18986,19676 19194,19698 19403,19701 19231,19710 19059,19739 18893,19787 19065,19815 19237,19842 19409,19870 19285,19891 19167,19941 19066,20015 19801,20078 20534,20171 21263,20291 L 20325,19629 Z"/>
      </g>
     </g>
     <g class="com.sun.star.drawing.ClosedBezierShape">
      <g id="id28">
       <rect class="BoundingBox" stroke="none" fill="none" x="19342" y="19312" width="6486" height="7238"/>
       <path fill="rgb(244,58,19)" stroke="none" d="M 24737,22163 C 24978,22396 25195,22652 25387,22927 25521,22499 25655,22071 25790,21643 25820,21547 25849,21439 25802,21350 25757,21263 25655,21225 25563,21191 25219,21063 24895,20882 24604,20658 24568,20753 24531,20848 24495,20943 24527,20813 24462,20675 24365,20584 24268,20493 24143,20438 24020,20386 23827,20304 23634,20221 23441,20138 23483,20181 23466,20257 23422,20297 23378,20337 23316,20350 23257,20361 22928,20421 22580,20452 22262,20348 21943,20244 21659,19977 21623,19644 21389,19600 21158,19541 20931,19468 20810,19618 20689,19768 20568,19919 20639,19730 20742,19554 20872,19400 20603,19372 20334,19344 20065,19316 20022,19311 19975,19307 19938,19330 19906,19350 19888,19386 19872,19421 19707,19785 19613,20180 19598,20579 19858,20527 20117,20475 20377,20423 20494,20400 20663,20413 20671,20532 20674,20576 20650,20616 20633,20656 20571,20799 20590,20961 20606,21115 20676,21766 20686,22423 20635,23076 20692,22918 20791,22775 20918,22666 20645,23250 20548,23898 20366,24517 20183,25136 19886,25763 19342,26110 19387,26142 19460,26116 19476,26063 19443,26146 19389,26233 19356,26315 19673,26512 20061,26569 20434,26542 20806,26514 21167,26407 21523,26295 22032,26134 22537,25959 23038,25773 23491,25604 23932,25393 24410,25328 L 23841,25270 C 23969,25207 24110,25172 24252,25166 24213,25122 24212,25056 24213,24997 24237,23885 24267,22741 24706,21719 24705,21825 24703,21930 24702,22036 24708,21979 24763,21933 24820,21937 24780,22005 24740,22073 24700,22141 24742,22160 24705,22131 24737,22163 Z"/>
      </g>
     </g>
     <g class="com.sun.star.drawing.ClosedBezierShape">
      <g id="id29">
       <rect class="BoundingBox" stroke="none" fill="none" x="18568" y="10997" width="2430" height="339"/>
       <path fill="rgb(58,58,58)" stroke="none" d="M 20997,11063 C 20606,10958 20192,11033 19797,11114 19700,11134 19601,11154 19503,11144 19398,11133 19300,11088 19198,11058 18995,10997 18780,10997 18568,10997 18750,11058 18932,11118 19115,11179 19227,11216 19341,11254 19460,11257 19599,11260 19734,11213 19873,11207 20000,11202 20125,11231 20249,11261 20355,11286 20461,11310 20567,11335 L 20997,11063 Z"/>
      </g>
     </g>
     <g class="com.sun.star.drawing.ClosedBezierShape">
      <g id="id30">
       <rect class="BoundingBox" stroke="none" fill="none" x="19078" y="10262" width="4574" height="470"/>
       <path fill="rgb(58,58,58)" stroke="none" d="M 23651,10731 C 23222,10608 22794,10485 22365,10362 22180,10309 21991,10256 21798,10263 21585,10272 21383,10355 21175,10399 20843,10471 20498,10445 20160,10419 L 19078,10336 C 19367,10387 19655,10439 19943,10491 20245,10545 20552,10598 20858,10567 21132,10538 21412,10440 21677,10516 21812,10554 21934,10634 22072,10651 L 23651,10731 Z"/>
      </g>
     </g>
     <g class="com.sun.star.drawing.ClosedBezierShape">
      <g id="id31">
       <rect class="BoundingBox" stroke="none" fill="none" x="21962" y="12123" width="5304" height="5619"/>
       <path fill="rgb(221,172,158)" stroke="none" d="M 21985,15604 C 21957,16039 21955,16477 21977,16912 21989,17141 22016,17392 22180,17552 22259,17629 22361,17676 22466,17709 22573,17741 22692,17759 22793,17712 22876,17675 22935,17601 22988,17527 23165,17281 23341,16987 23637,16922 23818,16882 24007,16939 24193,16938 24438,16936 24674,16830 24920,16826 25260,16821 25603,17010 25927,16909 26240,16811 26411,16484 26662,16273 26803,16153 26974,16069 27104,15937 27234,15804 27316,15595 27227,15433 27169,15326 27055,15267 26954,15200 26564,14944 26305,14499 26275,14033 26236,13421 25899,12837 25574,12317 25537,12259 25498,12199 25439,12164 25375,12126 25298,12121 25224,12124 24693,12143 24241,12491 23756,12708 23529,12809 23290,12883 23066,12991 22823,13109 22601,13265 22381,13420 22302,13475 22221,13533 22172,13617 22127,13694 22115,13785 22103,13874 22069,14129 22036,14384 22002,14638 21989,14739 21988,14866 22077,14915 L 21985,15604 Z"/>
      </g>
     </g>
     <g class="com.sun.star.drawing.ClosedBezierShape">
      <g id="id32">
       <rect class="BoundingBox" stroke="none" fill="none" x="22242" y="12529" width="4759" height="4522"/>
       <path fill="rgb(255,195,174)" stroke="none" d="M 25881,13297 C 26052,13608 26098,13970 26183,14315 26268,14660 26413,15017 26709,15212 26775,15255 26846,15289 26905,15341 26963,15393 27009,15469 26998,15546 26992,15594 26966,15636 26939,15676 26841,15827 26730,15968 26607,16099 26560,16149 26509,16199 26444,16223 26379,16246 26297,16235 26256,16179 26263,16222 26269,16265 26276,16308 26251,16274 26214,16250 26174,16240 L 26181,16372 C 25958,16284 25709,16324 25473,16363 24587,16510 23696,16635 22804,16738 22825,16775 22846,16813 22867,16850 22796,16902 22738,16971 22698,17049 22564,16926 22409,16826 22242,16755 22240,16690 22256,16626 22288,16570 22324,16578 22360,16586 22395,16594 22289,16104 22275,15593 22356,15098 22372,14997 22393,14896 22390,14793 22388,14702 22367,14612 22357,14522 22332,14297 22375,14071 22423,13851 22436,13792 22451,13731 22491,13686 22520,13653 22560,13633 22598,13613 22801,13508 22998,13393 23189,13268 23522,13052 23841,12805 24209,12655 24521,12529 24893,12475 25214,12598 25487,12703 25744,13048 25881,13297 Z"/>
      </g>
     </g>
     <g class="com.sun.star.drawing.ClosedBezierShape">
      <g id="id33">
       <rect class="BoundingBox" stroke="none" fill="none" x="23268" y="16982" width="3070" height="2184"/>
       <path fill="rgb(255,255,255)" stroke="none" d="M 26337,17119 L 25575,19060 C 25575,19060 25550,19106 25530,19122 25508,19139 25479,19145 25451,19149 25209,19187 24956,19152 24732,19051 24291,18852 24003,18423 23628,18116 23481,17997 23306,17870 23291,17681 23285,17610 23305,17537 23291,17467 23285,17436 23274,17407 23270,17376 23262,17295 23316,17220 23378,17168 23592,16986 23900,16979 24181,16982 24837,16988 25492,16994 26149,17000 L 26337,17119 Z"/>
      </g>
     </g>
     <g class="com.sun.star.drawing.ClosedBezierShape">
      <g id="id34">
       <rect class="BoundingBox" stroke="none" fill="none" x="23070" y="17139" width="1512" height="613"/>
       <path fill="rgb(198,198,198)" stroke="none" d="M 23401,17168 C 23788,17377 24181,17572 24581,17750 24076,17579 23573,17404 23070,17222 23106,17194 23142,17166 23179,17139 L 23401,17168 Z"/>
      </g>
     </g>
     <g class="com.sun.star.drawing.ClosedBezierShape">
      <g id="id35">
       <rect class="BoundingBox" stroke="none" fill="none" x="19587" y="12692" width="4835" height="6767"/>
       <path fill="rgb(221,172,158)" stroke="none" d="M 19587,16260 C 19637,17052 20175,17714 20687,18318 20905,18575 21128,18836 21409,19022 21777,19264 22219,19363 22654,19421 23281,19504 24006,19475 24421,18998 24155,18874 23890,18750 23625,18626 23146,18402 22816,17858 22487,17445 22400,17336 22316,17224 22258,17098 22142,16846 22136,16559 22120,16283 22085,15660 21991,15041 21841,14435 21753,14082 21643,13729 21453,13419 21263,13108 20984,12840 20639,12724 20516,12683 20363,12668 20272,12760 L 19587,16260 Z"/>
      </g>
     </g>
     <g class="com.sun.star.drawing.ClosedBezierShape">
      <g id="id36">
       <rect class="BoundingBox" stroke="none" fill="none" x="23431" y="10107" width="1799" height="1582"/>
       <path fill="rgb(58,58,58)" stroke="none" d="M 25228,11688 C 25234,11492 25095,11324 24960,11182 24732,10940 24487,10707 24192,10550 23932,10411 23629,10327 23432,10107 23608,10347 23874,10500 24123,10663 24372,10825 24622,11019 24732,11295 L 25228,11688 Z"/>
      </g>
     </g>
     <g class="com.sun.star.drawing.ClosedBezierShape">
      <g id="id37">
       <rect class="BoundingBox" stroke="none" fill="none" x="18379" y="13322" width="2326" height="404"/>
       <path fill="rgb(58,58,58)" stroke="none" d="M 20703,13725 C 20354,13500 19909,13515 19493,13502 19274,13495 19056,13477 18838,13449 18680,13429 18517,13402 18379,13322 18656,13513 18983,13628 19318,13653 L 20703,13725 Z"/>
      </g>
     </g>
     <g class="com.sun.star.drawing.ClosedBezierShape">
      <g id="id38">
       <rect class="BoundingBox" stroke="none" fill="none" x="18259" y="12077" width="1596" height="499"/>
       <path fill="rgb(58,58,58)" stroke="none" d="M 19854,12090 C 19839,12075 19813,12076 19791,12079 19522,12116 19376,12307 19133,12429 18890,12551 18674,12492 18259,12522 19021,12629 19034,12554 19411,12471 L 19854,12090 Z"/>
      </g>
     </g>
     <g class="com.sun.star.drawing.ClosedBezierShape">
      <g id="id39">
       <rect class="BoundingBox" stroke="none" fill="none" x="18147" y="17182" width="1955" height="403"/>
       <path fill="rgb(58,58,58)" stroke="none" d="M 20101,17525 C 19888,17441 19649,17463 19424,17502 19199,17542 18973,17599 18745,17580 18537,17563 18340,17486 18147,17409 18641,17453 19142,17396 19613,17245 19694,17219 19777,17189 19862,17183 19948,17177 20040,17198 20101,17259 L 20101,17525 Z"/>
      </g>
     </g>
     <g class="com.sun.star.drawing.ClosedBezierShape">
      <g id="id40">
       <rect class="BoundingBox" stroke="none" fill="none" x="20052" y="14858" width="3300" height="4507"/>
       <path fill="rgb(255,195,174)" stroke="none" d="M 20152,15029 C 19996,15228 20048,15517 20138,15754 20220,15973 20332,16188 20512,16337 20691,16486 20950,16556 21164,16464 21017,16555 21023,16768 21054,16938 21086,17114 21125,17292 21117,17471 21110,17651 21049,17837 20913,17954 20894,17970 20873,17987 20868,18011 20863,18037 20878,18062 20892,18084 21225,18592 21634,19105 22214,19286 22579,19400 22972,19368 23351,19318 23336,19265 23271,19246 23218,19230 23060,19182 22921,19075 22833,18934 22829,18974 22786,18999 22747,18998 22707,18996 22671,18976 22638,18955 22445,18839 22256,18711 22102,18546 21948,18381 21830,18176 21800,17953 21761,17970 21722,17987 21683,18004 21598,17478 21556,16945 21559,16412 L 21474,16486 C 21598,16378 21530,16017 21483,15889 21425,15737 21341,15594 21281,15443 21175,15179 20978,14951 20690,14877 20502,14829 20277,14871 20152,15029 Z"/>
      </g>
     </g>
     <g class="com.sun.star.drawing.ClosedBezierShape">
      <g id="id41">
       <rect class="BoundingBox" stroke="none" fill="none" x="12360" y="30013" width="2831" height="5534"/>
       <path fill="rgb(0,0,0)" stroke="none" d="M 15178,32285 C 15161,32065 15128,31846 15094,31628 L 14944,30107 C 14782,29965 14259,30010 14121,30069 13960,30898 13802,31457 13413,32206 13295,32433 13161,32652 13049,32883 12949,33089 12868,33301 12799,33519 12747,33684 12655,33782 12562,33926 12362,34235 12301,34640 12426,34990 12498,35191 12631,35377 12821,35476 13009,35575 13258,35572 13423,35438 13524,35357 13587,35237 13688,35157 13869,35012 14133,35023 14330,34899 14722,34653 14940,34112 15051,33687 15169,33231 15213,32755 15178,32285 Z"/>
      </g>
     </g>
     <g class="com.sun.star.drawing.ClosedBezierShape">
      <g id="id42">
       <rect class="BoundingBox" stroke="none" fill="none" x="26533" y="27001" width="6004" height="4457"/>
       <path fill="rgb(0,0,0)" stroke="none" d="M 26755,30014 C 26691,30224 26627,30434 26564,30644 26660,30083 27008,29602 27346,29143 27501,28930 27657,28718 27829,28518 28195,28093 28632,27730 29116,27445 29566,27180 30206,26909 30743,27032 31012,27093 31226,27324 31500,27356 31652,27373 31806,27326 31959,27342 32211,27368 32423,27575 32498,27817 32574,28059 32529,28327 32420,28557 32231,28958 31840,29247 31410,29339 31211,29382 31052,29388 30870,29483 30629,29609 30382,29719 30124,29808 29835,29908 29538,29979 29248,30071 28290,30374 27417,30895 26583,31457 26566,31200 26550,30943 26533,30686 26551,30716 26569,30745 26587,30774 L 26755,30014 Z"/>
      </g>
     </g>
     <g class="com.sun.star.drawing.ClosedBezierShape">
      <g id="id43">
       <rect class="BoundingBox" stroke="none" fill="none" x="21962" y="18992" width="1311" height="1186"/>
       <path fill="rgb(255,195,174)" stroke="none" d="M 22160,18992 L 21962,19743 C 21962,19743 22019,20120 22677,20167 23337,20214 23270,20072 23270,20072 L 23272,19366 22160,18992 Z"/>
      </g>
     </g>
     <g class="com.sun.star.drawing.ClosedBezierShape">
      <g id="id44">
       <rect class="BoundingBox" stroke="none" fill="none" x="21466" y="14424" width="5323" height="5649"/>
       <path fill="rgb(58,58,58)" stroke="none" d="M 21578,14994 C 21540,14980 21503,14966 21466,14951 21554,15325 21641,15698 21729,16071 21744,16137 21760,16205 21749,16271 21741,16315 21723,16356 21716,16399 21708,16443 21713,16488 21716,16533 21749,16904 21754,17276 21733,17648 21795,17582 21857,17516 21919,17450 21959,17633 22000,17816 22041,17999 22046,18021 22055,18047 22077,18049 22099,18051 22100,18005 22080,18015 22227,18236 22374,18456 22521,18677 22543,18711 22570,18748 22610,18759 22650,18769 22701,18733 22687,18694 22892,18806 23086,18940 23264,19091 23243,19058 23221,19026 23199,18993 23565,19178 23791,19572 24158,19757 24324,19842 24514,19879 24667,19985 24755,19966 24853,20001 24907,20072 24934,19993 24936,19905 24913,19825 24995,19898 25078,19970 25160,20043 25148,19960 25145,19876 25149,19793 25222,19825 25299,19847 25378,19857 25345,19806 25311,19754 25278,19702 25301,19695 25323,19688 25345,19680 L 25265,19653 C 25350,19655 25436,19656 25521,19658 25470,19609 25427,19551 25396,19488 25445,19519 25495,19550 25545,19581 25477,19515 25454,19406 25491,19319 25528,19232 25622,19172 25716,19175 25582,19096 25430,19046 25275,19029 25322,19009 25362,18974 25387,18930 L 25170,19008 C 25195,18981 25219,18954 25244,18927 25172,18990 25064,18995 24974,18963 24884,18931 24810,18868 24740,18803 24439,18525 24186,18199 23895,17910 23752,17768 23601,17635 23442,17512 23458,17503 23446,17474 23427,17472 23408,17470 23392,17483 23378,17496 23382,17453 23429,17419 23471,17430 23419,17385 23367,17341 23316,17296 23391,17266 23440,17187 23515,17154 23663,17090 23827,17065 23988,17080 24145,17095 24296,17149 24452,17172 24614,17196 24779,17187 24942,17200 25207,17222 25476,17301 25733,17234 25704,17288 25679,17345 25658,17403 25757,17376 25855,17348 25954,17320 26063,17289 26174,17258 26287,17266 26400,17274 26517,17329 26568,17430 26589,17370 26597,17306 26592,17243 26633,17302 26664,17368 26681,17437 26706,17307 26716,17174 26711,17041 L 26712,17144 C 26737,16996 26763,16847 26788,16699 26740,16651 26696,16669 26631,16649 26572,16515 26477,16398 26359,16312 26374,16383 26382,16455 26384,16528 26353,16502 26323,16475 26292,16449 26299,16485 26307,16521 26314,16557 26270,16526 26225,16496 26181,16466 26191,16522 26209,16577 26235,16628 26191,16580 26136,16543 26076,16518 26043,16580 25965,16601 25895,16613 25581,16666 25258,16665 24945,16609 24955,16599 24965,16590 24975,16580 24635,16620 24284,16663 23993,16843 24038,16827 24084,16811 24129,16795 23870,16848 23605,16870 23341,16860 23364,16857 23387,16846 23403,16829 23280,16859 23160,16841 23033,16843 23073,16847 23099,16891 23096,16931 23094,16970 23072,17006 23050,17039 22951,17193 22852,17346 22753,17500 22602,17274 22402,17081 22171,16939 22161,16759 22161,16578 22173,16397 22151,16419 22176,16461 22207,16460 22237,16460 22260,16429 22264,16398 22267,16368 22256,16338 22244,16310 22216,16238 22188,16166 22160,16094 22181,16092 22201,16089 22221,16087 22132,15717 22133,15325 22224,14954 L 21962,14424 21578,14994 Z"/>
      </g>
     </g>
     <g class="com.sun.star.drawing.ClosedBezierShape">
      <g id="id45">
       <rect class="BoundingBox" stroke="none" fill="none" x="23169" y="13320" width="2357" height="460"/>
       <path fill="rgb(58,58,58)" stroke="none" d="M 24185,13508 C 24086,13513 23989,13527 23882,13546 23727,13574 23575,13637 23440,13715 23351,13766 23188,13847 23169,13669 23323,13574 23524,13514 23702,13483 23854,13456 23998,13391 24150,13366 24316,13339 24493,13342 24662,13338 24810,13334 24966,13309 25112,13328 25207,13340 25504,13414 25523,13522 25553,13682 25065,13580 24984,13572 24793,13551 24601,13526 24409,13511 24331,13505 24258,13504 24185,13508 Z"/>
      </g>
     </g>
     <g class="com.sun.star.drawing.ClosedBezierShape">
      <g id="id46">
       <rect class="BoundingBox" stroke="none" fill="none" x="19118" y="12477" width="55" height="66"/>
       <path fill="rgb(58,58,58)" stroke="none" d="M 19138,12541 C 19148,12520 19161,12500 19172,12480 19135,12464 19093,12541 19138,12541 Z"/>
      </g>
     </g>
     <g class="com.sun.star.drawing.ClosedBezierShape">
      <g id="id47">
       <rect class="BoundingBox" stroke="none" fill="none" x="22163" y="14874" width="22" height="107"/>
       <path fill="rgb(58,58,58)" stroke="none" d="M 22184,14874 L 22163,14903 C 22168,14929 22175,14954 22181,14980 22182,14944 22183,14909 22184,14874 Z"/>
      </g>
     </g>
     <g class="com.sun.star.drawing.ClosedBezierShape">
      <g id="id48">
       <rect class="BoundingBox" stroke="none" fill="none" x="18740" y="10412" width="6945" height="7949"/>
       <path fill="rgb(58,58,58)" stroke="none" d="M 25503,11732 C 25370,11581 25198,11499 25040,11377 24631,11062 24231,10757 23773,10511 23839,10567 23905,10623 23970,10680 22706,10188 21197,10383 20099,11180 L 20230,11150 C 19811,11560 19452,11972 19170,12481 19172,12482 19174,12483 19176,12484 19213,12512 19201,12569 19187,12612 18727,13982 18710,15498 19138,16878 19161,16951 19186,17024 19217,17093 19157,17135 19079,17159 19007,17176 19021,17202 19055,17216 19084,17207 19012,17258 18924,17285 18836,17281 18907,17314 18990,17307 19068,17298 19133,17291 19199,17283 19264,17295 19328,17308 19391,17346 19416,17406 19426,17432 19430,17460 19445,17482 19462,17506 19490,17519 19517,17530 19654,17590 19792,17649 19929,17708 19755,17757 19582,17806 19409,17855 19294,17887 19179,17920 19060,17931 18954,17942 18845,17935 18740,17911 18928,17992 19140,18014 19340,17974 19426,17957 19511,17929 19598,17916 19714,17900 19833,17913 19950,17925 19928,18003 19878,18072 19812,18118 19911,18177 20026,18211 20142,18213 20104,18277 20041,18325 19969,18344 20231,18381 20257,18355 20488,18225 20719,18095 20903,17856 20914,17591 20926,17297 21022,16649 20746,16571 L 20742,16571 C 20401,16430 20127,16134 20016,15782 19901,15421 19960,15010 20170,14695 20219,14623 20279,14552 20363,14528 20462,14498 20567,14541 20662,14583 20914,14695 21179,14817 21339,15042 21512,15285 21585,15660 21877,15722 L 22163,14904 C 22076,14488 22138,14054 22200,13632 22204,13606 22208,13580 22220,13558 22233,13535 22254,13518 22275,13502 22448,13372 22665,13322 22867,13244 23025,13184 23176,13106 23325,13027 23693,12833 24057,12630 24446,12482 24834,12335 25133,12236 25546,12276 25557,12296 25612,12379 25612,12379 25612,12379 25830,12054 25503,11732 Z"/>
      </g>
     </g>
     <g class="com.sun.star.drawing.ClosedBezierShape">
      <g id="id49">
       <rect class="BoundingBox" stroke="none" fill="none" x="10937" y="12459" width="8402" height="2360"/>
       <path fill="rgb(58,58,58)" stroke="none" d="M 19181,12459 C 19016,12480 18851,12505 18687,12528 18522,12551 18357,12573 18192,12588 18040,12601 17888,12606 17737,12631 17314,12701 16927,12887 16526,13031 16332,13231 16132,13422 15890,13563 15303,13904 14593,13822 13954,13714 13896,13704 13835,13693 13789,13658 13689,13581 13685,13418 13578,13352 13012,13570 12376,13601 11791,13439 11799,13372 11806,13306 11813,13239 11815,13219 11817,13196 11805,13180 11790,13160 11762,13158 11737,13158 11470,13154 11203,13150 10937,13146 11083,13158 11230,13170 11376,13183 11443,13188 11519,13199 11557,13255 11607,13330 11556,13440 11600,13519 11639,13589 11732,13603 11812,13609 12145,13634 12480,13659 12814,13625 12834,13623 12854,13621 12874,13625 12896,13629 12917,13640 12936,13651 13170,13780 13407,13904 13647,14023 13855,14127 14096,14175 14318,14251 14830,14425 15350,14576 15876,14703 16203,14782 16542,14853 16875,14799 17252,14737 17590,14521 17967,14458 18154,14427 18350,14433 18526,14364 18980,14185 19292,13423 19334,12970 19352,12770 19291,12599 19181,12459 Z"/>
      </g>
     </g>
     <g class="com.sun.star.drawing.ClosedBezierShape">
      <g id="id50">
       <rect class="BoundingBox" stroke="none" fill="none" x="14372" y="11825" width="4880" height="911"/>
       <path fill="rgb(58,58,58)" stroke="none" d="M 19239,12707 C 19283,12571 19198,12421 19079,12342 18960,12263 18814,12239 18673,12218 18336,12167 17996,12116 17655,12131 17388,12142 17123,12194 16855,12214 16188,12265 14953,12212 14852,12145 14752,12079 15010,11912 15120,11825 14785,11955 14193,12328 14425,12487 14657,12646 15878,12437 16360,12519 16623,12565 17389,12661 17516,12617 17932,12472 17961,12451 18298,12735 L 19239,12707 Z"/>
      </g>
     </g>
     <g class="com.sun.star.drawing.ClosedBezierShape">
      <g id="id51">
       <rect class="BoundingBox" stroke="none" fill="none" x="13012" y="14316" width="3245" height="353"/>
       <path fill="rgb(58,58,58)" stroke="none" d="M 14177,14486 C 14281,14506 14575,14465 14682,14469 14869,14475 15824,14380 16000,14316 16080,14382 16166,14441 16256,14492 16120,14539 15292,14640 15002,14662 14674,14687 13762,14632 13450,14531 13479,14508 13500,14477 13510,14443 13344,14424 13178,14404 13012,14385 13240,14416 13456,14290 13679,14333 13665,14366 13648,14400 13645,14436 13823,14453 13999,14452 14177,14486 Z"/>
      </g>
     </g>
     <g class="com.sun.star.drawing.ClosedBezierShape">
      <g id="id52">
       <rect class="BoundingBox" stroke="none" fill="none" x="13690" y="12883" width="3373" height="778"/>
       <path fill="rgb(58,58,58)" stroke="none" d="M 14751,13214 C 14751,13216 14750,13217 14750,13219 L 14739,13217 C 14743,13216 14747,13215 14751,13214 Z M 16448,13491 C 16645,13480 16837,13436 17009,13340 16300,13202 15576,13142 14854,13161 14885,13091 14790,13025 14714,13034 14606,13046 14557,13066 14494,13062 14460,13060 14421,13051 14366,13030 14330,13016 14091,12885 14096,12883 13990,12943 13801,12949 13690,12996 13768,12973 13856,12980 13934,13008 14052,13033 14584,13265 14693,13282 14749,13291 14807,13274 14862,13287 14908,13297 14946,13326 14985,13351 15223,13503 15171,13571 15451,13599 15988,13653 16535,13706 17062,13591 L 16448,13491 Z"/>
      </g>
     </g>
     <g class="com.sun.star.drawing.ClosedBezierShape">
      <g id="id53">
       <rect class="BoundingBox" stroke="none" fill="none" x="20583" y="13819" width="5747" height="1397"/>
       <path fill="rgb(0,0,0)" stroke="none" d="M 26303,13930 C 26252,13873 26171,13855 26095,13843 25904,13815 25706,13812 25515,13839 25346,13863 25169,13855 24998,13866 24819,13877 24641,13892 24463,13912 24110,13952 23759,14009 23412,14083 23336,14099 23262,14119 23198,14162 23154,14192 23140,14187 23085,14182 23035,14178 22985,14174 22934,14171 22737,14161 20781,14536 20584,14550 20662,14582 20744,14603 20813,14641 20973,14634 22650,14320 22810,14335 22882,14342 22986,14338 23053,14367 23109,14391 23099,14461 23125,14513 23167,14598 23234,14671 23311,14726 23436,14814 23584,14861 23729,14908 23846,14945 23955,14996 24072,15031 24212,15071 24353,15110 24495,15142 24706,15188 24921,15219 25137,15214 25352,15208 25514,15148 25690,15026 25751,14984 25813,14940 25857,14880 25885,14841 25904,14796 25921,14751 25977,14599 26011,14438 26018,14277 26018,14262 26018,14249 26018,14238 26017,14237 26016,14236 26015,14235 26023,14212 26032,14189 26047,14170 26067,14143 26095,14125 26125,14110 26188,14079 26258,14063 26328,14063 26329,14018 26333,13965 26303,13930 Z"/>
      </g>
     </g>
    </g>
   </g>
  </g>
 </g>
</svg>